<svg width="30" height="40" viewBox="0 0 30 40" fill="none" xmlns="http://www.w3.org/2000/svg">
<path d="M29.8389 9.12408C29.8368 9.10291 29.8331 9.08236 29.8296 9.06166C29.8283 9.05431 29.8276 9.04682 29.8262 9.03955C29.8212 9.01463 29.8147 8.99017 29.8076 8.96603C29.8068 8.96306 29.8062 8.96002 29.8054 8.95713C29.7979 8.93252 29.789 8.90869 29.7796 8.8851C29.7786 8.88236 29.7778 8.87963 29.7766 8.87697C29.7674 8.85471 29.7569 8.8333 29.7459 8.81205C29.7438 8.80799 29.7421 8.80377 29.74 8.79978C29.7298 8.78072 29.7183 8.76244 29.7068 8.74424C29.703 8.7383 29.6998 8.73213 29.696 8.72635C29.6851 8.7101 29.6731 8.69471 29.6612 8.67924C29.6557 8.67213 29.6508 8.66463 29.6451 8.65767C29.6319 8.64174 29.6177 8.62674 29.6035 8.61181C29.5982 8.60627 29.5935 8.60025 29.588 8.5947L21.2486 0.255313C21.2432 0.249844 21.2372 0.245235 21.2315 0.239922C21.2165 0.225704 21.2016 0.211485 21.1857 0.19836C21.1787 0.192579 21.1712 0.187735 21.1641 0.182266C21.1486 0.170313 21.1332 0.158282 21.117 0.147422C21.1111 0.143516 21.105 0.140313 21.0991 0.136563C21.0809 0.125 21.0627 0.113516 21.0436 0.10336C21.0396 0.101172 21.0353 0.0995314 21.0313 0.0974221C21.0101 0.0864064 20.9886 0.0760158 20.9664 0.0667189C20.9636 0.0656251 20.9609 0.0647658 20.9582 0.0637501C20.9347 0.0542189 20.9107 0.0454688 20.8862 0.0379688C20.8832 0.0371094 20.8803 0.0365626 20.8773 0.0357032C20.8532 0.0286719 20.8288 0.0221875 20.8038 0.0171875C20.7964 0.0157032 20.7889 0.0150782 20.7817 0.01375C20.7611 0.0101563 20.7404 0.00648439 20.7193 0.00445313C20.6907 0.00148438 20.6616 0 20.6324 0H2.30141C1.03242 0 0 1.03242 0 2.30141V37.6985C0 38.9676 1.03242 40 2.30141 40H27.5419C28.8108 40 29.8432 38.9676 29.8432 37.6985V9.21111C29.8433 9.18189 29.8418 9.15291 29.8389 9.12408ZM21.5039 2.97626L26.8671 8.33947H22.0619C21.7542 8.33947 21.5039 8.08908 21.5039 7.7815V2.97626ZM28.0999 37.6987C28.0999 38.0064 27.8496 38.2567 27.5419 38.2567H2.30141C1.99368 38.2567 1.74336 38.0064 1.74336 37.6987V2.30141C1.74336 1.99368 1.99368 1.74336 2.30141 1.74336H19.7604V7.78142C19.7604 9.05041 20.7929 10.0828 22.0618 10.0828H28.0998V37.6987H28.0999Z" fill="#D4ADCF"/>
<path d="M24.9874 14.906H16.4787C15.9973 14.906 15.6069 15.2963 15.6069 15.7777C15.6069 16.2591 15.9972 16.6494 16.4787 16.6494H24.9874C25.4688 16.6494 25.8591 16.2592 25.8591 15.7777C25.8591 15.2964 25.4688 14.906 24.9874 14.906Z" fill="#D4ADCF"/>
<path d="M20.0357 19.1531H16.4787C15.9973 19.1531 15.6069 19.5434 15.6069 20.0248C15.6069 20.5061 15.9972 20.8965 16.4787 20.8965H20.0357C20.517 20.8965 20.9074 20.5063 20.9074 20.0248C20.9073 19.5434 20.517 19.1531 20.0357 19.1531Z" fill="#D4ADCF"/>
<path d="M11.587 16.1632C11.2467 15.8228 10.6946 15.8229 10.3543 16.1634L8.72925 17.7893L7.85159 16.9112C7.51128 16.5707 6.9594 16.5704 6.61885 16.9107C6.27831 17.2509 6.27807 17.8029 6.61839 18.1434L8.11245 19.6386C8.27589 19.8022 8.49776 19.8941 8.72894 19.8941C8.72901 19.8941 8.72901 19.8941 8.72901 19.8941C8.96019 19.8941 9.18206 19.8022 9.3455 19.6387L11.5872 17.3959C11.9276 17.0555 11.9275 16.5036 11.587 16.1632Z" fill="#D4ADCF"/>
<path d="M13.35 12.7825H4.85588C4.37455 12.7825 3.98416 13.1728 3.98416 13.6542V22.1483C3.98416 22.6297 4.37447 23.02 4.85588 23.02H13.35C13.8313 23.02 14.2217 22.6297 14.2217 22.1483V13.6542C14.2216 13.1727 13.8314 12.7825 13.35 12.7825ZM12.4782 21.2766H5.7276V14.5259H12.4782V21.2766Z" fill="#D4ADCF"/>
<path d="M24.9874 27.8987H16.4787C15.9973 27.8987 15.6069 28.289 15.6069 28.7704C15.6069 29.2517 15.9972 29.6421 16.4787 29.6421H24.9874C25.4688 29.6421 25.8591 29.2518 25.8591 28.7704C25.8591 28.289 25.4688 27.8987 24.9874 27.8987Z" fill="#D4ADCF"/>
<path d="M20.0356 32.1458H16.4787C15.9973 32.1458 15.6069 32.536 15.6069 33.0175C15.6069 33.4988 15.9972 33.8892 16.4787 33.8892H20.0357C20.517 33.8892 20.9074 33.4989 20.9074 33.0175C20.9073 32.536 20.517 32.1458 20.0356 32.1458Z" fill="#D4ADCF"/>
<path d="M13.35 25.7751H4.85588C4.37455 25.7751 3.98416 26.1654 3.98416 26.6469V35.1409C3.98416 35.6223 4.37447 36.0127 4.85588 36.0127H13.35C13.8313 36.0127 14.2217 35.6224 14.2217 35.1409V26.6469C14.2216 26.1654 13.8314 25.7751 13.35 25.7751ZM12.4782 34.2692H5.7276V27.5186H12.4782V34.2692Z" fill="#D4ADCF"/>
</svg>
