<svg width="40" height="40" viewBox="0 0 40 40" fill="none" xmlns="http://www.w3.org/2000/svg">
<path d="M20 0C8.94508 0 0 8.94602 0 20C0 31.0549 8.94602 40 20 40C31.0549 40 40 31.054 40 20C40 8.94508 31.054 0 20 0ZM20 37.3334C10.4424 37.3334 2.66664 29.5577 2.66664 20C2.66664 10.4423 10.4424 2.66664 20 2.66664C29.5576 2.66664 37.3334 10.4424 37.3334 20C37.3334 29.5576 29.5576 37.3334 20 37.3334Z" fill="#D4ADCF"/>
<path d="M30.5871 12.6508C30.0664 12.1301 29.2221 12.1301 28.7015 12.6508L16.8314 24.5209L11.2986 18.9881C10.7779 18.4674 9.93358 18.4674 9.41296 18.9881C8.89225 19.5088 8.89225 20.353 9.41296 20.8738L15.8885 27.3493C16.4091 27.8699 17.2537 27.8698 17.7741 27.3493L30.5871 14.5363C31.1078 14.0156 31.1078 13.1715 30.5871 12.6508Z" fill="#D4ADCF"/>
</svg>
