<svg width="19" height="21" viewBox="0 0 19 21" fill="none" xmlns="http://www.w3.org/2000/svg">
<path d="M9.49991 1C4.81299 1 1 4.12371 1 7.96337C1 9.72723 2.35664 12.2194 5.0324 15.3706C6.98818 17.6741 8.91175 19.4567 8.99279 19.5315L9.49991 20L10.0072 19.5315C10.0881 19.4567 12.0116 17.6741 13.9676 15.3706C16.6432 12.2194 18 9.72723 18 7.96337C18 4.12371 14.1868 1 9.49991 1V1ZM12.8619 14.7273C11.5399 16.2853 10.2038 17.6262 9.49991 18.3102C8.79779 17.628 7.46664 16.2923 6.14556 14.7363C3.66639 11.8165 2.35593 9.47442 2.35593 7.96337C2.35593 4.73631 5.56076 2.11082 9.49991 2.11082C13.4392 2.11082 16.6439 4.73631 16.6439 7.96337C16.6439 9.47282 15.3361 11.8117 12.8619 14.7273Z" fill="white" stroke="white"/>
<path d="M9.49994 4C7.57004 4 6 5.79433 6 7.99993C6 10.2055 7.57004 12 9.49994 12C11.43 12 13 10.2055 13 7.99993C13 5.79433 11.43 4 9.49994 4V4ZM9.49994 10.9189C8.09174 10.9189 6.946 9.60944 6.946 7.99993C6.946 6.39056 8.09174 5.08114 9.49994 5.08114C10.9083 5.08114 12.054 6.39056 12.054 7.99993C12.054 9.60944 10.9083 10.9189 9.49994 10.9189Z" fill="white" stroke="white"/>
</svg>
