<svg width="21" height="16" viewBox="0 0 21 16" fill="none" xmlns="http://www.w3.org/2000/svg">
<path d="M18.3301 1H2.66992C1.75028 1 1 1.74946 1 2.66992V13.8027C1 14.7201 1.74694 15.4727 2.66992 15.4727H18.3301C19.2474 15.4727 20 14.7257 20 13.8027V2.66992C20 1.75258 19.2531 1 18.3301 1ZM18.0995 2.11328L10.5354 9.6774L2.9059 2.11328H18.0995ZM2.11328 13.5722V2.89514L7.47481 8.21069L2.11328 13.5722ZM2.90048 14.3594L8.26538 8.99447L10.1452 10.8582C10.3628 11.0739 10.714 11.0732 10.9307 10.8565L12.7637 9.02353L18.0995 14.3594H2.90048ZM18.8867 13.5722L13.5509 8.23633L18.8867 2.90045V13.5722Z" fill="white" stroke="white" stroke-width="0.5"/>
</svg>
