<svg width="19" height="19" viewBox="0 0 19 19" fill="none" xmlns="http://www.w3.org/2000/svg">
<g clip-path="url(#clip0_68_43)">
<path d="M17.2689 17.4708L18.0747 13.979C18.162 13.5997 17.9639 13.2102 17.608 13.0558L13.8477 11.4442C13.5187 11.3031 13.1325 11.3972 12.9076 11.6758L11.2423 13.7104C8.66715 12.5018 6.52511 10.3899 5.29289 7.76103L7.3275 6.09575C7.60622 5.86744 7.70019 5.48469 7.55917 5.15566L5.94762 1.39532C5.78981 1.03607 5.40033 0.837985 5.02094 0.925279L1.52921 1.73107C1.16661 1.815 0.904739 2.13732 0.904739 2.51671C0.904738 11.1151 7.87141 18.0953 16.4833 18.0953C16.8593 18.0953 17.185 17.8367 17.2689 17.4708Z" stroke="white" stroke-width="2"/>
</g>
<defs>
<clipPath id="clip0_68_43">
<rect width="19" height="19" fill="white" transform="translate(19) rotate(90)"/>
</clipPath>
</defs>
</svg>
