<svg width="60" height="60" viewBox="0 0 60 60" fill="none" xmlns="http://www.w3.org/2000/svg">
<path d="M15.3849 18.9204C20.5886 18.9204 24.8223 14.6764 24.8223 9.45966C24.8223 4.24356 20.5886 0 15.3849 0C10.181 0 5.94733 4.24356 5.94733 9.45966C5.94712 14.6764 10.1808 18.9204 15.3849 18.9204ZM15.3849 3.15007C18.8519 3.15007 21.6723 5.98072 21.6723 9.45966C21.6723 12.9392 18.8517 15.7703 15.3849 15.7703C11.9182 15.7703 9.0974 12.9392 9.0974 9.45966C9.09719 5.98072 11.918 3.15007 15.3849 3.15007Z" fill="white"/>
<path d="M44.6153 18.9204C49.819 18.9204 54.0527 14.6764 54.0527 9.45966C54.0529 4.24356 49.819 0 44.6153 0C39.4114 0 35.1777 4.24356 35.1777 9.45966C35.1777 14.6764 39.4114 18.9204 44.6153 18.9204ZM44.6153 3.15007C48.0822 3.15007 50.9026 5.98072 50.9026 9.45966C50.9026 12.9392 48.082 15.7703 44.6153 15.7703C41.1483 15.7703 38.3277 12.9392 38.3277 9.45966C38.3277 5.98072 41.1483 3.15007 44.6153 3.15007Z" fill="white"/>
<path d="M59.6386 31.1053L58.0329 23.0533C57.5316 20.5414 55.1363 18.5737 52.5797 18.5737H49.1079C48.6894 18.5737 48.288 18.7402 47.9926 19.0365L44.6153 22.4237L41.238 19.0365C40.9427 18.7402 40.5414 18.5737 40.1226 18.5737H36.6504C35.6981 18.5737 34.7694 18.849 33.9519 19.3219C32.6129 18.785 31.1544 18.4863 29.6264 18.4863C28.2637 18.4863 26.9556 18.7238 25.7386 19.1556C24.9996 18.785 24.1837 18.5737 23.3492 18.5737H19.8774C19.4588 18.5737 19.0575 18.7402 18.762 19.0365L15.3849 22.4237L12.0076 19.0365C11.7124 18.7402 11.3111 18.5737 10.8923 18.5737H7.42009C4.86329 18.5737 2.46819 20.5414 1.96711 23.0535L0.361209 31.1053C0.269017 31.5679 0.38893 32.0474 0.688186 32.4124C0.987443 32.7769 1.43433 32.9884 1.906 32.9884H18.2801C19.5319 38.1045 24.143 41.9126 29.6266 41.9126C35.1102 41.9126 39.7213 38.1045 40.9732 32.9884H58.0938C58.5655 32.9884 59.0123 32.7769 59.3116 32.4124C59.6108 32.0476 59.731 31.5679 59.6386 31.1053ZM5.05649 23.6697C5.26314 22.6331 6.36755 21.7238 7.42009 21.7238H10.2386L14.2694 25.7666C14.5649 26.0629 14.9662 26.2294 15.3847 26.2294C15.8033 26.2294 16.2046 26.0629 16.5001 25.7666L20.5311 21.7238H21.5748C19.4208 23.781 18.0486 26.6507 17.9518 29.8383H3.82628L5.05649 23.6697ZM29.6266 38.7625C24.921 38.7625 21.0927 34.9209 21.0927 30.1991C21.0927 25.4778 24.9208 21.6366 29.6266 21.6366C34.3322 21.6366 38.1606 25.4778 38.1606 30.1991C38.1606 34.9209 34.3322 38.7625 29.6266 38.7625ZM41.3014 29.8383C41.2046 26.6507 39.8324 23.781 37.6784 21.7238H39.4689L43.4997 25.7666C43.7952 26.0629 44.1965 26.2294 44.6153 26.2294C45.0338 26.2294 45.4351 26.0629 45.7306 25.7666L49.7616 21.7238H52.5797C53.6322 21.7238 54.7366 22.6331 54.9435 23.6697L56.1737 29.8383H41.3014Z" fill="white"/>
<path d="M46.4362 47.7645C45.8323 44.7379 42.9468 42.3669 39.8669 42.3669H35.4028C34.9843 42.3669 34.583 42.5335 34.2875 42.8298L29.6266 47.5043L24.9658 42.8298C24.6705 42.5335 24.2692 42.3669 23.8505 42.3669H19.3862C16.3063 42.3669 13.4206 44.7379 12.8166 47.7647L10.7523 58.1169C10.6601 58.5795 10.78 59.0589 11.0792 59.4239C11.3785 59.7885 11.8254 60 12.2971 60H46.9564C47.4281 60 47.875 59.7885 48.1742 59.4239C48.4735 59.0592 48.5934 58.5795 48.5012 58.1169L46.4362 47.7645ZM14.2171 56.8499L15.906 48.3811C16.2103 46.8552 17.8366 45.517 19.3862 45.517H23.1967L28.5115 50.8471C28.8068 51.1435 29.2081 51.31 29.6268 51.31C30.0454 51.31 30.4467 51.1435 30.742 50.8471L36.0568 45.517H39.8671C41.4167 45.517 43.0428 46.8552 43.3471 48.3808L45.0363 56.8499H14.2171Z" fill="white"/>
</svg>
