<svg width="40" height="40" viewBox="0 0 40 40" fill="none" xmlns="http://www.w3.org/2000/svg">
<g clip-path="url(#clip0_93_107)">
<path d="M37.9525 15.801L35.145 15.3247C34.8525 14.3805 34.4765 13.4697 34.0169 12.6007L35.6714 10.2861C36.3733 9.30013 36.2647 7.95483 35.404 7.10252L32.9139 4.61246C32.446 4.14453 31.8277 3.8855 31.1675 3.8855C30.6495 3.8855 30.1565 4.04426 29.7387 4.34507L27.4157 5.99954C26.5133 5.52326 25.5691 5.13053 24.5914 4.83807L24.1235 2.06391C23.923 0.869015 22.8952 0 21.6836 0H18.1658C16.9541 0 15.9264 0.869015 15.7258 2.06391L15.2412 4.90492C14.3053 5.19738 13.3945 5.58175 12.5255 6.04968L10.2276 4.39521C9.80984 4.0944 9.30848 3.93563 8.79042 3.93563C8.1303 3.93563 7.50361 4.19467 7.04403 4.6626L4.54562 7.15266C3.69331 8.00496 3.57633 9.35026 4.27823 10.3363L5.94941 12.6843C5.48983 13.5616 5.12217 14.4724 4.83807 15.4167L2.06391 15.8846C0.869015 16.0851 0 17.1129 0 18.3245V21.8424C0 23.054 0.869015 24.0817 2.06391 24.2823L4.90492 24.7669C5.19738 25.7028 5.58175 26.6136 6.04968 27.4826L4.40357 29.7721C3.70167 30.7581 3.8103 32.1034 4.67095 32.9557L7.16102 35.4458C7.62895 35.9137 8.24728 36.1727 8.9074 36.1727C9.42547 36.1727 9.91847 36.014 10.3363 35.7132L12.6843 34.042C13.5282 34.4848 14.4139 34.8441 15.3247 35.1282L15.7927 37.9358C15.9932 39.1307 17.021 39.9997 18.2326 39.9997H21.7588C22.9704 39.9997 23.9982 39.1307 24.1987 37.9358L24.675 35.1282C25.6192 34.8358 26.53 34.4598 27.399 34.0002L29.7136 35.6547C30.1314 35.9555 30.6328 36.1142 31.1508 36.1142C31.811 36.1142 32.4293 35.8552 32.8972 35.3873L35.3873 32.8972C36.2396 32.0449 36.3566 30.6996 35.6547 29.7136L34.0002 27.3907C34.4598 26.5133 34.8441 25.6025 35.1282 24.6666L37.9358 24.1987C39.1307 23.9982 39.9997 22.9704 39.9997 21.7588V18.241C40.0165 17.0293 39.1474 16.0016 37.9525 15.801ZM37.7604 21.7588C37.7604 21.8674 37.6852 21.9593 37.5765 21.976L34.0671 22.561C33.6242 22.6362 33.2732 22.962 33.1646 23.3882C32.8471 24.6165 32.3624 25.7947 31.7107 26.8893C31.4851 27.2737 31.5018 27.75 31.7608 28.1176L33.8247 31.0255C33.8832 31.1091 33.8749 31.2344 33.7997 31.3096L31.3096 33.7997C31.2511 33.8582 31.1926 33.8665 31.1508 33.8665C31.1007 33.8665 31.0589 33.8498 31.0255 33.8247L28.126 31.7608C27.7667 31.5018 27.282 31.4851 26.8977 31.7107C25.8031 32.3624 24.6249 32.8471 23.3966 33.1646C22.962 33.2732 22.6362 33.6325 22.5693 34.067L21.976 37.5765C21.9593 37.6852 21.8674 37.7604 21.7588 37.7604H18.241C18.1323 37.7604 18.0404 37.6852 18.0237 37.5765L17.4388 34.067C17.3636 33.6242 17.0377 33.2732 16.6116 33.1646C15.4167 32.8554 14.2635 32.3792 13.1856 31.7608C13.0102 31.6605 12.8096 31.6104 12.6174 31.6104C12.3918 31.6104 12.1579 31.6773 11.9657 31.8193L9.0411 33.8999C8.99932 33.925 8.95754 33.9417 8.91576 33.9417C8.88233 33.9417 8.81549 33.9334 8.757 33.8749L6.26693 31.3848C6.19173 31.3096 6.18337 31.1926 6.24187 31.1007L8.29742 28.2179C8.55645 27.8503 8.57316 27.3656 8.34756 26.9812C7.69579 25.895 7.19444 24.7168 6.87692 23.4885C6.75993 23.0623 6.40898 22.7364 5.97448 22.6612L2.43993 22.0596C2.3313 22.0429 2.2561 21.951 2.2561 21.8424V18.3245C2.2561 18.2159 2.3313 18.124 2.43993 18.1073L5.92434 17.5223C6.3672 17.4471 6.72651 17.1213 6.83514 16.6868C7.1443 15.4584 7.62059 14.2719 8.264 13.1773C8.48961 12.7929 8.46454 12.3166 8.2055 11.9573L6.12488 9.03274C6.06639 8.94918 6.07475 8.82384 6.14995 8.74864L8.64001 6.25858C8.6985 6.20009 8.757 6.19173 8.79877 6.19173C8.84891 6.19173 8.89069 6.20844 8.92411 6.23351L11.8069 8.28906C12.1746 8.5481 12.6592 8.56481 13.0436 8.3392C14.1298 7.68744 15.308 7.18608 16.5363 6.86856C16.9625 6.75158 17.2884 6.40063 17.3636 5.96612L17.9652 2.43157C17.9819 2.32294 18.0738 2.24774 18.1825 2.24774H21.7003C21.8089 2.24774 21.9008 2.32294 21.9176 2.43157L22.5025 5.91599C22.5777 6.35885 22.9036 6.71815 23.3381 6.82678C24.5998 7.1443 25.8031 7.6373 26.9227 8.29742C27.3071 8.52303 27.7834 8.50632 28.1511 8.24728L31.0339 6.17502C31.0756 6.14995 31.1174 6.13324 31.1592 6.13324C31.1926 6.13324 31.2595 6.14159 31.318 6.20009L33.808 8.69015C33.8832 8.76535 33.8916 8.88233 33.8331 8.97425L31.7692 11.8737C31.5101 12.2331 31.4934 12.7177 31.719 13.1021C32.3708 14.1967 32.8554 15.3749 33.173 16.6032C33.2816 17.0377 33.6409 17.3636 34.0754 17.4304L37.5849 18.0237C37.6935 18.0404 37.7687 18.1323 37.7687 18.241V21.7588H37.7604V21.7588Z" fill="#D4ADCF"/>
<path d="M20.004 11.364C15.2412 11.364 11.3724 15.2328 11.3724 19.9957C11.3724 24.7585 15.2412 28.6273 20.004 28.6273C24.7669 28.6273 28.6357 24.7585 28.6357 19.9957C28.6357 15.2328 24.7669 11.364 20.004 11.364ZM20.004 26.3712C16.4862 26.3712 13.6285 23.5135 13.6285 19.9957C13.6285 16.4778 16.4862 13.6201 20.004 13.6201C23.5219 13.6201 26.3796 16.4778 26.3796 19.9957C26.3796 23.5135 23.5219 26.3712 20.004 26.3712Z" fill="#D4ADCF"/>
</g>
<defs>
<clipPath id="clip0_93_107">
<rect width="40" height="40" fill="white"/>
</clipPath>
</defs>
</svg>
