<svg width="60" height="60" viewBox="0 0 60 60" fill="none" xmlns="http://www.w3.org/2000/svg">
<g clip-path="url(#clip0_98_23)">
<path d="M25.6147 42.6091C21.8457 42.6091 18.7793 45.6755 18.7793 49.4446C18.7793 53.2136 21.8457 56.28 25.6147 56.28C29.3838 56.28 32.4502 53.2136 32.4502 49.4446C32.4502 45.6755 29.3838 42.6091 25.6147 42.6091V42.6091ZM25.6147 54.3951C22.885 54.3951 20.6642 52.1743 20.6642 49.4446C20.6642 46.7148 22.885 44.494 25.6147 44.494C28.3445 44.494 30.5653 46.7148 30.5653 49.4446C30.5653 52.1743 28.3445 54.3951 25.6147 54.3951V54.3951Z" fill="white"/>
<path d="M53.6168 58.6522L52.2603 55.8042C51.7292 54.6889 50.5878 53.9684 49.3525 53.9684H47.2553V12.2368C47.2553 5.48936 41.7653 0 35.0172 0C28.2691 0 22.7791 5.48949 22.7791 12.2368V29.4751C15.324 30.8399 9.65582 37.3838 9.65582 45.2272V48.7182H7.23396C6.71347 48.7182 6.2915 49.1401 6.2915 49.6606V55.8806C6.2915 56.4011 6.71347 56.823 7.23396 56.823H9.809C10.3093 58.6517 11.9846 60 13.9698 60H25.6147C31.4351 60 36.1702 55.2649 36.1702 49.4445C36.1702 46.2063 34.7033 43.3055 32.4004 41.3675V32.8987C32.4004 30.8664 30.7471 29.2131 28.7148 29.2131H28.5596V12.2368C28.5596 8.67675 31.4566 5.7804 35.0173 5.7804C38.578 5.7804 41.475 8.67675 41.475 12.2368V53.9684H39.3771C38.1418 53.9684 37.0005 54.6889 36.4694 55.8042L35.1129 58.6522C34.9738 58.9441 34.9942 59.287 35.1668 59.5606C35.3395 59.834 35.6403 59.9999 35.9638 59.9999H52.7661C53.0896 59.9999 53.3904 59.834 53.5631 59.5606C53.7356 59.2871 53.7559 58.9442 53.6168 58.6522V58.6522ZM8.17641 50.6031H9.65582V54.9381H8.17641V50.6031ZM34.2853 49.4445C34.2853 54.2255 30.3957 58.1151 25.6147 58.1151C20.8337 58.1151 16.9441 54.2255 16.9441 49.4445C16.9441 44.6635 20.8337 40.7739 25.6147 40.7739C30.3957 40.7739 34.2853 44.6635 34.2853 49.4445ZM30.5155 32.8987V40.1C29.0499 39.3282 27.383 38.889 25.6147 38.889C19.7944 38.889 15.0592 43.6241 15.0592 49.4445C15.0592 53.033 16.8606 56.2071 19.6051 58.1151H13.9698C12.6303 58.1151 11.5407 57.0255 11.5407 55.6861V45.2272C11.5407 37.4364 17.8791 31.098 25.6699 31.098H28.7147C29.7078 31.098 30.5155 31.9058 30.5155 32.8987V32.8987ZM26.6747 12.2368V29.213H25.6699C25.332 29.213 24.9969 29.2248 24.6641 29.2455V12.2368C24.6641 6.84663 28.8064 2.40753 34.0748 1.92965V3.95015C29.9171 4.41999 26.6747 7.95608 26.6747 12.2368V12.2368ZM35.9597 3.95015V1.92977C41.2282 2.40766 45.3705 6.84663 45.3705 12.237V13.2565H43.3599V12.2368C43.3599 7.95608 40.1176 4.41999 35.9597 3.95015ZM43.3599 15.1412H45.3705V53.9684H43.3599V15.1412V15.1412ZM37.4565 58.1151L38.1711 56.6148C38.3914 56.1523 38.8649 55.8534 39.3771 55.8534H49.3527C49.865 55.8534 50.3384 56.1523 50.5588 56.6148L51.2734 58.1151H37.4565Z" fill="white"/>
</g>
<defs>
<clipPath id="clip0_98_23">
<rect width="60" height="60" fill="white"/>
</clipPath>
</defs>
</svg>
